<mxfile host="app.diagrams.net" modified="2024-02-24T22:09:28.440Z" agent="Mozilla/5.0 (Windows NT 10.0; Win64; x64; rv:123.0) Gecko/20100101 Firefox/123.0" version="23.1.6" etag="z4UPKgSNipYonLOIEE2C" type="github">
  <diagram name="PÃ¡gina-1" id="vYkYjJz6SzKhYMIl1SHD">
    <mxGraphModel>
      <root>
        <mxCell id="0" />
        <mxCell id="1" parent="0" />
      </root>
    </mxGraphModel>
  </diagram>
</mxfile>
